<?xml version="1.0" encoding="UTF-8"?>
<svg width="12px" height="12px" viewBox="0 0 12 12" version="1.1" xmlns="http://www.w3.org/2000/svg" xmlns:xlink="http://www.w3.org/1999/xlink">
    <title>部门</title>
    <g id="页面-1" stroke="none" stroke-width="1" fill="none" fill-rule="evenodd">
        <g id="3、项目基本信息-悬浮" transform="translate(-1072.000000, -750.000000)">
            <g id="编组-27" transform="translate(1059.000000, 601.000000)">
                <g id="部门" transform="translate(13.000000, 149.000000)">
                    <circle id="椭圆形" fill="#FAA14E" cx="6" cy="6" r="6"></circle>
                    <g transform="translate(2.430372, 2.857226)" fill="#FFFFFF" fill-rule="nonzero" id="形状">
                        <path d="M6.84071018,5.69949163 L6.52283071,5.69949163 L6.52283071,2.09977759 C6.52283071,1.77016522 6.23645911,1.49993645 5.88637159,1.49993645 L4.61345336,1.49993645 L4.61345336,5.69949163 L4.29487372,5.69949163 L4.29487372,0.599841135 C4.29487372,0.270228765 4.00850213,0 3.6584146,0 L1.11362841,0 C0.763540885,0 0.477169292,0.270228765 0.477169292,0.599841135 L0.477169292,5.69949163 L0.159289822,5.69949163 C0.063715929,5.69949163 0,5.75954247 0,5.84961872 L0,6.14987291 C0,6.23994916 0.0630157539,6.3 0.159289822,6.3 L6.84071018,6.3 C6.93628407,6.3 7,6.23994916 7,6.14987291 L7,5.84961872 C7,5.75954247 6.93628407,5.69949163 6.84071018,5.69949163 Z M2.06866717,4.34968227 C2.06866717,4.43975853 2.00460115,4.49980936 1.90937734,4.49980936 L1.27291823,4.49980936 C1.17734434,4.49980936 1.11362841,4.43975853 1.11362841,4.34968227 L1.11362841,4.04942809 C1.11362841,3.95935183 1.17769442,3.899301 1.27291823,3.899301 L1.90937734,3.899301 C2.00495124,3.899301 2.06866717,3.95935183 2.06866717,4.04942809 L2.06866717,4.34968227 Z M1.90937734,3.30012709 L1.27291823,3.30012709 C1.17734434,3.30012709 1.11362841,3.24007626 1.11362841,3.15 L1.11362841,2.84974582 C1.11362841,2.75966956 1.17769442,2.69961872 1.27291823,2.69961872 L1.90937734,2.69961872 C2.00495124,2.69961872 2.06866717,2.75966956 2.06866717,2.84974582 L2.06866717,3.15 C2.06866717,3.24007626 2.00460115,3.30012709 1.90937734,3.30012709 Z M2.06866717,1.9496505 C2.06866717,2.03972675 2.00460115,2.09977759 1.90937734,2.09977759 L1.27291823,2.09977759 C1.17734434,2.09977759 1.11362841,2.03972675 1.11362841,1.9496505 L1.11362841,1.64939631 C1.11362841,1.55932006 1.17769442,1.49926922 1.27291823,1.49926922 L1.90937734,1.49926922 C2.00495124,1.49926922 2.06866717,1.55932006 2.06866717,1.64939631 L2.06866717,1.9496505 Z M3.50017504,4.49980936 L2.86371593,4.49980936 C2.76814204,4.49980936 2.70442611,4.43975853 2.70442611,4.34968227 L2.70442611,4.04942809 C2.70442611,3.95935183 2.76849212,3.899301 2.86371593,3.899301 L3.50017504,3.899301 C3.59574894,3.899301 3.65946487,3.95935183 3.65946487,4.04942809 L3.65946487,4.34968227 C3.65946487,4.43975853 3.59539885,4.49980936 3.50017504,4.49980936 Z M3.50017504,3.30012709 L2.86371593,3.30012709 C2.76814204,3.30012709 2.70442611,3.24007626 2.70442611,3.15 L2.70442611,2.84974582 C2.70442611,2.75966956 2.76849212,2.69961872 2.86371593,2.69961872 L3.50017504,2.69961872 C3.59574894,2.69961872 3.65946487,2.75966956 3.65946487,2.84974582 L3.65946487,3.15 C3.65946487,3.24007626 3.59539885,3.30012709 3.50017504,3.30012709 Z M3.50017504,2.09977759 L2.86371593,2.09977759 C2.76814204,2.09977759 2.70442611,2.03972675 2.70442611,1.9496505 L2.70442611,1.64939631 C2.70442611,1.55932006 2.76849212,1.49926922 2.86371593,1.49926922 L3.50017504,1.49926922 C3.59574894,1.49926922 3.65946487,1.55932006 3.65946487,1.64939631 L3.65946487,1.9496505 C3.65946487,2.03972675 3.59539885,2.09977759 3.50017504,2.09977759 Z M6.0460115,4.34968227 C6.0460115,4.43975853 5.98194549,4.49980936 5.88672168,4.49980936 L5.25026257,4.49980936 C5.15468867,4.49980936 5.09097274,4.43975853 5.09097274,4.34968227 L5.09097274,4.04942809 C5.09097274,3.95935183 5.15503876,3.899301 5.25026257,3.899301 L5.88672168,3.899301 C5.98229557,3.899301 6.0460115,3.95935183 6.0460115,4.04942809 L6.0460115,4.34968227 Z M5.88672168,3.30012709 L5.25026257,3.30012709 C5.15468867,3.30012709 5.09097274,3.24007626 5.09097274,3.15 L5.09097274,2.84974582 C5.09097274,2.75966956 5.15503876,2.69961872 5.25026257,2.69961872 L5.88672168,2.69961872 C5.98229557,2.69961872 6.0460115,2.75966956 6.0460115,2.84974582 L6.0460115,3.15 C6.0460115,3.24007626 5.98194549,3.30012709 5.88672168,3.30012709 Z"></path>
                    </g>
                </g>
            </g>
        </g>
    </g>
</svg>